solid Rail
facet normal -0.7071067811865479 -1.4931374354743348e-16 0.7071067811865472
  outer loop
    vertex 5.587899231489792 62.2728511053467 9.54999990463258
    vertex 5.587899231489792 57.162849302902245 9.549999904632573
    vertex 8.357899197515144 57.162849302902245 12.319999870657933
  endloop
endfacet
facet normal -0.7071067811865477 2.9862748709486715e-17 0.7071067811865475
  outer loop
    vertex 5.587899231489792 62.2728511053467 9.54999990463258
    vertex 8.357899197515144 57.162849302902245 12.319999870657933
    vertex 8.357899197515144 62.2728511053467 12.319999870657933
  endloop
endfacet
facet normal 0.0 0.0 1.0
  outer loop
    vertex 24.02789944666256 57.162849302902245 12.31999987065791
    vertex 8.357899197515144 62.2728511053467 12.319999870657933
    vertex 8.357899197515144 57.162849302902245 12.319999870657933
  endloop
endfacet
facet normal 0.0 0.0 1.0
  outer loop
    vertex 24.02789944666256 62.2728511053467 12.31999987065791
    vertex 8.357899197515144 62.2728511053467 12.319999870657933
    vertex 24.02789944666256 57.162849302902245 12.31999987065791
  endloop
endfacet
facet normal 0.707106829495663 0.0 0.7071067328774289
  outer loop
    vertex 24.02789944666256 62.2728511053467 12.31999987065791
    vertex 24.02789944666256 57.162849302902245 12.31999987065791
    vertex 26.797899034198416 57.162849302902245 9.549999904632585
  endloop
endfacet
facet normal 0.7071068294956631 5.972550149938407e-17 0.7071067328774289
  outer loop
    vertex 24.02789944666256 62.2728511053467 12.31999987065791
    vertex 26.797899034198416 57.162849302902245 9.549999904632585
    vertex 26.797899034198416 62.2728511053467 9.54999990463258
  endloop
endfacet
facet normal 0.0 -1.0 0.0
  outer loop
    vertex 8.357899197515144 57.162849302902245 12.319999870657933
    vertex 26.56789853828777 57.162849302902245 9.319999905489396
    vertex 24.02789944666256 57.162849302902245 12.31999987065791
  endloop
endfacet
facet normal 0.0 -1.0 0.0
  outer loop
    vertex 8.357899197515144 57.162849302902245 12.319999870657933
    vertex 5.817898970421448 57.162849302902245 9.319999905489396
    vertex 26.56789853828777 57.162849302902245 9.319999905489396
  endloop
endfacet
facet normal 0.0 -1.0 0.0
  outer loop
    vertex 8.357899197515144 57.162849302902245 12.319999870657933
    vertex 5.587899231489792 57.162849302902245 9.549999904632573
    vertex 5.817898970421448 57.162849302902245 9.319999905489396
  endloop
endfacet
facet normal 0.0 -1.0 0.0
  outer loop
    vertex 24.02789944666256 57.162849302902245 12.31999987065791
    vertex 26.56789853828777 57.162849302902245 9.319999905489396
    vertex 26.797899034198416 57.162849302902245 9.549999904632585
  endloop
endfacet
facet normal 0.0 0.0 1.0
  outer loop
    vertex 26.56789853828777 57.162849302902245 9.319999905489396
    vertex 5.817898970421448 57.162849302902245 9.319999905489396
    vertex 5.817898970421448 51.932851191177384 9.319999905489396
  endloop
endfacet
facet normal 0.0 0.0 1.0
  outer loop
    vertex 26.56789853828777 57.162849302902245 9.319999905489396
    vertex 5.817898970421448 51.932851191177384 9.319999905489396
    vertex 26.56789853828777 51.932851191177384 9.319999905489396
  endloop
endfacet
facet normal 0.0 1.0 0.0
  outer loop
    vertex 8.357899197515144 62.2728511053467 6.779999938607227
    vertex 24.02789944666256 62.2728511053467 6.779999938607224
    vertex 8.357899197515144 62.2728511053467 3.0000000000000115
  endloop
endfacet
facet normal 0.0 1.0 0.0
  outer loop
    vertex 24.02789944666256 62.2728511053467 12.31999987065791
    vertex 26.797899034198416 62.2728511053467 9.54999990463258
    vertex 24.02789944666256 62.2728511053467 6.779999938607224
  endloop
endfacet
facet normal 0.0 1.0 0.0
  outer loop
    vertex 8.357899197515144 62.2728511053467 12.319999870657933
    vertex 8.357899197515144 62.2728511053467 6.779999938607227
    vertex 5.587899231489792 62.2728511053467 9.54999990463258
  endloop
endfacet
facet normal 0.0 1.0 0.0
  outer loop
    vertex 24.02789944666256 62.2728511053467 12.31999987065791
    vertex 24.02789944666256 62.2728511053467 6.779999938607224
    vertex 8.357899197515144 62.2728511053467 6.779999938607227
  endloop
endfacet
facet normal 0.0 1.0 0.0
  outer loop
    vertex 24.02789944666256 62.2728511053467 6.779999938607224
    vertex 24.02789944666256 62.2728511053467 3.0000000000000084
    vertex 8.357899197515144 62.2728511053467 3.0000000000000115
  endloop
endfacet
facet normal 0.0 1.0 0.0
  outer loop
    vertex 8.357899197515144 62.2728511053467 12.319999870657933
    vertex 24.02789944666256 62.2728511053467 12.31999987065791
    vertex 8.357899197515144 62.2728511053467 6.779999938607227
  endloop
endfacet
facet normal 1.0 0.0 0.0
  outer loop
    vertex 24.02789944666256 62.2728511053467 6.779999938607224
    vertex 24.02789944666256 5.462849732055693 6.779999938607224
    vertex 24.02789944666256 5.462849732055693 3.0000000000000084
  endloop
endfacet
facet normal 1.0 0.0 0.0
  outer loop
    vertex 24.02789944666256 62.2728511053467 6.779999938607224
    vertex 24.02789944666256 5.462849732055693 3.0000000000000084
    vertex 24.02789944666256 62.2728511053467 3.0000000000000084
  endloop
endfacet
facet normal -1.0 0.0 0.0
  outer loop
    vertex 8.357899197515144 62.2728511053467 3.0000000000000115
    vertex 8.357899197515144 5.462849732055693 3.0000000000000115
    vertex 8.357899197515144 5.462849732055693 6.779999938607227
  endloop
endfacet
facet normal -1.0 0.0 0.0
  outer loop
    vertex 8.357899197515144 62.2728511053467 3.0000000000000115
    vertex 8.357899197515144 5.462849732055693 6.779999938607227
    vertex 8.357899197515144 62.2728511053467 6.779999938607227
  endloop
endfacet
facet normal 0.0 -1.0 0.0
  outer loop
    vertex 24.02789944666256 5.462849732055693 12.31999987065791
    vertex 8.357899197515144 5.462849732055693 6.779999938607227
    vertex 24.02789944666256 5.462849732055693 6.779999938607224
  endloop
endfacet
facet normal 0.0 -1.0 0.0
  outer loop
    vertex 8.357899197515144 5.462849732055693 6.779999938607227
    vertex 24.02789944666256 5.462849732055693 3.0000000000000084
    vertex 24.02789944666256 5.462849732055693 6.779999938607224
  endloop
endfacet
facet normal 0.0 -1.0 0.0
  outer loop
    vertex 8.357899197515144 5.462849732055693 6.779999938607227
    vertex 8.357899197515144 5.462849732055693 3.0000000000000115
    vertex 24.02789944666256 5.462849732055693 3.0000000000000084
  endloop
endfacet
facet normal 0.0 -1.0 0.0
  outer loop
    vertex 8.357899197515144 5.462849732055693 12.319999870657933
    vertex 8.357899197515144 5.462849732055693 6.779999938607227
    vertex 24.02789944666256 5.462849732055693 12.31999987065791
  endloop
endfacet
facet normal 0.0 -1.0 0.0
  outer loop
    vertex 8.357899197515144 5.462849732055693 12.319999870657933
    vertex 5.587899231489792 5.462849732055693 9.54999990463258
    vertex 8.357899197515144 5.462849732055693 6.779999938607227
  endloop
endfacet
facet normal 0.0 -1.0 0.0
  outer loop
    vertex 24.02789944666256 5.462849732055693 12.31999987065791
    vertex 24.02789944666256 5.462849732055693 6.779999938607224
    vertex 26.797899034198416 5.462849732055693 9.54999990463258
  endloop
endfacet
facet normal -0.7071067811865479 1.1945108331339845e-16 0.7071067811865472
  outer loop
    vertex 5.587899231489792 10.57284964205268 9.549999904632573
    vertex 5.587899231489792 5.462849732055693 9.54999990463258
    vertex 8.357899197515144 10.57284964205268 12.319999870657933
  endloop
endfacet
facet normal -0.7071067811865477 0.0 0.7071067811865475
  outer loop
    vertex 8.357899197515144 10.57284964205268 12.319999870657933
    vertex 5.587899231489792 5.462849732055693 9.54999990463258
    vertex 8.357899197515144 5.462849732055693 12.319999870657933
  endloop
endfacet
facet normal 0.0 0.0 1.0
  outer loop
    vertex 24.02789944666256 10.57284964205268 12.31999987065791
    vertex 8.357899197515144 10.57284964205268 12.319999870657933
    vertex 24.02789944666256 5.462849732055693 12.31999987065791
  endloop
endfacet
facet normal 0.0 0.0 1.0
  outer loop
    vertex 24.02789944666256 5.462849732055693 12.31999987065791
    vertex 8.357899197515144 10.57284964205268 12.319999870657933
    vertex 8.357899197515144 5.462849732055693 12.319999870657933
  endloop
endfacet
facet normal 0.707106829495663 -1.7917663721133873e-16 0.707106732877429
  outer loop
    vertex 26.797899034198416 10.57284964205268 9.549999904632585
    vertex 24.02789944666256 5.462849732055693 12.31999987065791
    vertex 26.797899034198416 5.462849732055693 9.54999990463258
  endloop
endfacet
facet normal 0.7071068294956628 -2.986277286855647e-17 0.707106732877429
  outer loop
    vertex 24.02789944666256 10.57284964205268 12.31999987065791
    vertex 24.02789944666256 5.462849732055693 12.31999987065791
    vertex 26.797899034198416 10.57284964205268 9.549999904632585
  endloop
endfacet
facet normal 0.0 1.0 0.0
  outer loop
    vertex 24.02789944666256 10.57284964205268 12.31999987065791
    vertex 26.797899034198416 10.57284964205268 9.549999904632585
    vertex 26.56789853828777 10.57284964205268 9.319999905489396
  endloop
endfacet
facet normal 0.0 1.0 0.0
  outer loop
    vertex 8.357899197515144 10.57284964205268 12.319999870657933
    vertex 24.02789944666256 10.57284964205268 12.31999987065791
    vertex 5.817898970421448 10.57284964205268 9.319999905489396
  endloop
endfacet
facet normal 0.0 1.0 0.0
  outer loop
    vertex 24.02789944666256 10.57284964205268 12.31999987065791
    vertex 26.56789853828777 10.57284964205268 9.319999905489396
    vertex 5.817898970421448 10.57284964205268 9.319999905489396
  endloop
endfacet
facet normal 0.0 1.0 0.0
  outer loop
    vertex 8.357899197515144 10.57284964205268 12.319999870657933
    vertex 5.817898970421448 10.57284964205268 9.319999905489396
    vertex 5.587899231489792 10.57284964205268 9.549999904632573
  endloop
endfacet
facet normal 0.0 0.0 1.0
  outer loop
    vertex 26.56789853828777 10.57284964205268 9.319999905489396
    vertex 5.817898970421448 15.802849646225004 9.319999905489396
    vertex 5.817898970421448 10.57284964205268 9.319999905489396
  endloop
endfacet
facet normal 0.0 0.0 1.0
  outer loop
    vertex 26.56789853828777 15.802849646225004 9.319999905489396
    vertex 5.817898970421448 15.802849646225004 9.319999905489396
    vertex 26.56789853828777 10.57284964205268 9.319999905489396
  endloop
endfacet
facet normal 0.0 -1.0 0.0
  outer loop
    vertex 8.357899197515144 15.802849646225004 12.319999870657933
    vertex 26.56789853828777 15.802849646225004 9.319999905489396
    vertex 24.02789944666256 15.802849646225004 12.31999987065791
  endloop
endfacet
facet normal 0.0 -1.0 0.0
  outer loop
    vertex 8.357899197515144 15.802849646225004 12.319999870657933
    vertex 5.817898970421448 15.802849646225004 9.319999905489396
    vertex 26.56789853828777 15.802849646225004 9.319999905489396
  endloop
endfacet
facet normal 0.0 -1.0 0.0
  outer loop
    vertex 8.357899197515144 15.802849646225004 12.319999870657933
    vertex 5.587899231489792 15.802849646225004 9.549999904632573
    vertex 5.817898970421448 15.802849646225004 9.319999905489396
  endloop
endfacet
facet normal 0.0 -1.0 0.0
  outer loop
    vertex 24.02789944666256 15.802849646225004 12.31999987065791
    vertex 26.56789853828777 15.802849646225004 9.319999905489396
    vertex 26.797899034198416 15.802849646225004 9.549999904632585
  endloop
endfacet
facet normal -0.7071067811865479 2.9862766404575077e-17 0.7071067811865472
  outer loop
    vertex 5.587899231489792 20.912849934711485 9.549999904632573
    vertex 8.357899197515144 15.802849646225004 12.319999870657933
    vertex 8.357899197515144 20.912849934711485 12.319999870657933
  endloop
endfacet
facet normal -0.7071067811865478 2.9862766404575064e-17 0.7071067811865474
  outer loop
    vertex 5.587899231489792 20.912849934711485 9.549999904632573
    vertex 5.587899231489792 15.802849646225004 9.549999904632573
    vertex 8.357899197515144 15.802849646225004 12.319999870657933
  endloop
endfacet
facet normal 0.0 0.0 1.0
  outer loop
    vertex 24.02789944666256 20.912849934711485 12.31999987065791
    vertex 8.357899197515144 20.912849934711485 12.319999870657933
    vertex 24.02789944666256 15.802849646225004 12.31999987065791
  endloop
endfacet
facet normal 0.0 0.0 1.0
  outer loop
    vertex 24.02789944666256 15.802849646225004 12.31999987065791
    vertex 8.357899197515144 20.912849934711485 12.319999870657933
    vertex 8.357899197515144 15.802849646225004 12.319999870657933
  endloop
endfacet
facet normal 0.7071068294956631 0.0 0.7071067328774289
  outer loop
    vertex 24.02789944666256 20.912849934711485 12.31999987065791
    vertex 26.797899034198416 15.802849646225004 9.549999904632585
    vertex 26.797899034198416 20.912849934711485 9.549999904632585
  endloop
endfacet
facet normal 0.707106829495663 2.986276844478161e-17 0.7071067328774289
  outer loop
    vertex 24.02789944666256 20.912849934711485 12.31999987065791
    vertex 24.02789944666256 15.802849646225004 12.31999987065791
    vertex 26.797899034198416 15.802849646225004 9.549999904632585
  endloop
endfacet
facet normal 0.0 1.0 0.0
  outer loop
    vertex 24.02789944666256 20.912849934711485 12.31999987065791
    vertex 26.797899034198416 20.912849934711485 9.549999904632585
    vertex 26.56789853828777 20.912849934711485 9.319999905489396
  endloop
endfacet
facet normal 0.0 1.0 0.0
  outer loop
    vertex 8.357899197515144 20.912849934711485 12.319999870657933
    vertex 24.02789944666256 20.912849934711485 12.31999987065791
    vertex 5.817898970421448 20.912849934711485 9.319999905489396
  endloop
endfacet
facet normal 0.0 1.0 0.0
  outer loop
    vertex 24.02789944666256 20.912849934711485 12.31999987065791
    vertex 26.56789853828777 20.912849934711485 9.319999905489396
    vertex 5.817898970421448 20.912849934711485 9.319999905489396
  endloop
endfacet
facet normal 0.0 1.0 0.0
  outer loop
    vertex 8.357899197515144 20.912849934711485 12.319999870657933
    vertex 5.817898970421448 20.912849934711485 9.319999905489396
    vertex 5.587899231489792 20.912849934711485 9.549999904632573
  endloop
endfacet
facet normal 0.0 0.0 1.0
  outer loop
    vertex 26.56789853828777 20.912849934711485 9.319999905489396
    vertex 5.817898970421448 26.142849560394314 9.319999905489396
    vertex 5.817898970421448 20.912849934711485 9.319999905489396
  endloop
endfacet
facet normal 0.0 0.0 1.0
  outer loop
    vertex 26.56789853828777 26.142849560394314 9.319999905489396
    vertex 5.817898970421448 26.142849560394314 9.319999905489396
    vertex 26.56789853828777 20.912849934711485 9.319999905489396
  endloop
endfacet
facet normal 0.0 -1.0 0.0
  outer loop
    vertex 8.357899197515144 26.142849560394314 12.319999870657933
    vertex 26.56789853828777 26.142849560394314 9.319999905489396
    vertex 24.02789944666256 26.142849560394314 12.31999987065791
  endloop
endfacet
facet normal 0.0 -1.0 0.0
  outer loop
    vertex 8.357899197515144 26.142849560394314 12.319999870657933
    vertex 5.817898970421448 26.142849560394314 9.319999905489396
    vertex 26.56789853828777 26.142849560394314 9.319999905489396
  endloop
endfacet
facet normal 0.0 -1.0 0.0
  outer loop
    vertex 8.357899197515144 26.142849560394314 12.319999870657933
    vertex 5.587899231489792 26.142849560394314 9.549999904632573
    vertex 5.817898970421448 26.142849560394314 9.319999905489396
  endloop
endfacet
facet normal 0.0 -1.0 0.0
  outer loop
    vertex 24.02789944666256 26.142849560394314 12.31999987065791
    vertex 26.56789853828777 26.142849560394314 9.319999905489396
    vertex 26.797899034198416 26.142849560394314 9.549999904632585
  endloop
endfacet
facet normal -0.7071067811865479 -2.9862784099679166e-17 0.7071067811865472
  outer loop
    vertex 5.587899231489792 31.252848334922813 9.549999904632573
    vertex 8.357899197515144 26.142849560394314 12.319999870657933
    vertex 8.357899197515144 31.252848334922813 12.319999870657933
  endloop
endfacet
facet normal -0.7071067811865479 0.0 0.7071067811865472
  outer loop
    vertex 5.587899231489792 31.252848334922813 9.549999904632573
    vertex 5.587899231489792 26.142849560394314 9.549999904632573
    vertex 8.357899197515144 26.142849560394314 12.319999870657933
  endloop
endfacet
facet normal 0.0 0.0 1.0
  outer loop
    vertex 24.02789944666256 31.252848334922813 12.31999987065791
    vertex 8.357899197515144 31.252848334922813 12.319999870657933
    vertex 24.02789944666256 26.142849560394314 12.31999987065791
  endloop
endfacet
facet normal 0.0 0.0 1.0
  outer loop
    vertex 24.02789944666256 26.142849560394314 12.31999987065791
    vertex 8.357899197515144 31.252848334922813 12.319999870657933
    vertex 8.357899197515144 26.142849560394314 12.319999870657933
  endloop
endfacet
facet normal 0.707106829495663 -2.9862786139886916e-17 0.7071067328774289
  outer loop
    vertex 24.02789944666256 31.252848334922813 12.31999987065791
    vertex 26.797899034198416 26.142849560394314 9.549999904632585
    vertex 26.797899034198416 31.252848334922813 9.549999904632585
  endloop
endfacet
facet normal 0.7071068294956628 -2.986278613988691e-17 0.707106732877429
  outer loop
    vertex 24.02789944666256 31.252848334922813 12.31999987065791
    vertex 24.02789944666256 26.142849560394314 12.31999987065791
    vertex 26.797899034198416 26.142849560394314 9.549999904632585
  endloop
endfacet
facet normal 0.0 1.0 0.0
  outer loop
    vertex 24.02789944666256 31.252848334922813 12.31999987065791
    vertex 26.797899034198416 31.252848334922813 9.549999904632585
    vertex 26.56789853828777 31.252848334922813 9.319999905489396
  endloop
endfacet
facet normal 0.0 1.0 0.0
  outer loop
    vertex 8.357899197515144 31.252848334922813 12.319999870657933
    vertex 24.02789944666256 31.252848334922813 12.31999987065791
    vertex 5.817898970421448 31.252848334922813 9.319999905489396
  endloop
endfacet
facet normal 0.0 1.0 0.0
  outer loop
    vertex 24.02789944666256 31.252848334922813 12.31999987065791
    vertex 26.56789853828777 31.252848334922813 9.319999905489396
    vertex 5.817898970421448 31.252848334922813 9.319999905489396
  endloop
endfacet
facet normal 0.0 1.0 0.0
  outer loop
    vertex 8.357899197515144 31.252848334922813 12.319999870657933
    vertex 5.817898970421448 31.252848334922813 9.319999905489396
    vertex 5.587899231489792 31.252848334922813 9.549999904632573
  endloop
endfacet
facet normal 0.0 0.0 1.0
  outer loop
    vertex 26.56789853828777 31.252848334922813 9.319999905489396
    vertex 5.817898970421448 36.48284947456362 9.319999905489396
    vertex 5.817898970421448 31.252848334922813 9.319999905489396
  endloop
endfacet
facet normal 0.0 0.0 1.0
  outer loop
    vertex 26.56789853828777 36.48284947456362 9.319999905489396
    vertex 5.817898970421448 36.48284947456362 9.319999905489396
    vertex 26.56789853828777 31.252848334922813 9.319999905489396
  endloop
endfacet
facet normal 0.0 -1.0 0.0
  outer loop
    vertex 8.357899197515144 36.48284947456362 12.319999870657933
    vertex 26.56789853828777 36.48284947456362 9.319999905489396
    vertex 24.02789944666256 36.48284947456362 12.31999987065791
  endloop
endfacet
facet normal 0.0 -1.0 0.0
  outer loop
    vertex 8.357899197515144 36.48284947456362 12.319999870657933
    vertex 5.817898970421448 36.48284947456362 9.319999905489396
    vertex 26.56789853828777 36.48284947456362 9.319999905489396
  endloop
endfacet
facet normal 0.0 -1.0 0.0
  outer loop
    vertex 8.357899197515144 36.48284947456362 12.319999870657933
    vertex 5.587899231489792 36.48284947456362 9.549999904632573
    vertex 5.817898970421448 36.48284947456362 9.319999905489396
  endloop
endfacet
facet normal 0.0 -1.0 0.0
  outer loop
    vertex 24.02789944666256 36.48284947456362 12.31999987065791
    vertex 26.56789853828777 36.48284947456362 9.319999905489396
    vertex 26.797899034198416 36.48284947456362 9.549999904632585
  endloop
endfacet
facet normal -0.7071067811865479 -2.9862784099679166e-17 0.7071067811865472
  outer loop
    vertex 5.587899231489792 41.59284824909212 9.549999904632573
    vertex 8.357899197515144 36.48284947456362 12.319999870657933
    vertex 8.357899197515144 41.59284824909212 12.319999870657933
  endloop
endfacet
facet normal -0.7071067811865479 0.0 0.7071067811865472
  outer loop
    vertex 5.587899231489792 41.59284824909212 9.549999904632573
    vertex 5.587899231489792 36.48284947456362 9.549999904632573
    vertex 8.357899197515144 36.48284947456362 12.319999870657933
  endloop
endfacet
facet normal 0.0 0.0 1.0
  outer loop
    vertex 24.02789944666256 41.59284824909212 12.31999987065791
    vertex 8.357899197515144 41.59284824909212 12.319999870657933
    vertex 24.02789944666256 36.48284947456362 12.31999987065791
  endloop
endfacet
facet normal 0.0 0.0 1.0
  outer loop
    vertex 24.02789944666256 36.48284947456362 12.31999987065791
    vertex 8.357899197515144 41.59284824909212 12.319999870657933
    vertex 8.357899197515144 36.48284947456362 12.319999870657933
  endloop
endfacet
facet normal 0.707106829495663 -2.9862786139886916e-17 0.7071067328774289
  outer loop
    vertex 24.02789944666256 41.59284824909212 12.31999987065791
    vertex 26.797899034198416 36.48284947456362 9.549999904632585
    vertex 26.797899034198416 41.59284824909212 9.549999904632585
  endloop
endfacet
facet normal 0.7071068294956628 -2.986278613988691e-17 0.707106732877429
  outer loop
    vertex 24.02789944666256 41.59284824909212 12.31999987065791
    vertex 24.02789944666256 36.48284947456362 12.31999987065791
    vertex 26.797899034198416 36.48284947456362 9.549999904632585
  endloop
endfacet
facet normal 0.0 1.0 0.0
  outer loop
    vertex 24.02789944666256 41.59284824909212 12.31999987065791
    vertex 26.797899034198416 41.59284824909212 9.549999904632585
    vertex 26.56789853828777 41.59284824909212 9.319999905489396
  endloop
endfacet
facet normal 0.0 1.0 0.0
  outer loop
    vertex 8.357899197515144 41.59284824909212 12.319999870657933
    vertex 24.02789944666256 41.59284824909212 12.31999987065791
    vertex 5.817898970421448 41.59284824909212 9.319999905489396
  endloop
endfacet
facet normal 0.0 1.0 0.0
  outer loop
    vertex 24.02789944666256 41.59284824909212 12.31999987065791
    vertex 26.56789853828777 41.59284824909212 9.319999905489396
    vertex 5.817898970421448 41.59284824909212 9.319999905489396
  endloop
endfacet
facet normal 0.0 1.0 0.0
  outer loop
    vertex 8.357899197515144 41.59284824909212 12.319999870657933
    vertex 5.817898970421448 41.59284824909212 9.319999905489396
    vertex 5.587899231489792 41.59284824909212 9.549999904632573
  endloop
endfacet
facet normal 0.0 0.0 1.0
  outer loop
    vertex 26.56789853828777 46.82284938873293 9.319999905489396
    vertex 5.817898970421448 46.82284938873293 9.319999905489396
    vertex 5.817898970421448 41.59284824909212 9.319999905489396
  endloop
endfacet
facet normal 0.0 0.0 1.0
  outer loop
    vertex 26.56789853828777 46.82284938873293 9.319999905489396
    vertex 5.817898970421448 41.59284824909212 9.319999905489396
    vertex 26.56789853828777 41.59284824909212 9.319999905489396
  endloop
endfacet
facet normal -0.7071067811865469 3.600729346024308e-08 -0.7071067811865472
  outer loop
    vertex 8.357899197515144 62.2728511053467 6.779999938607227
    vertex 5.817898970421448 57.162849302902245 9.319999905489396
    vertex 5.587899231489792 62.2728511053467 9.54999990463258
  endloop
endfacet
facet normal -0.7071067449665996 -2.8412654190192227e-16 -0.7071068174064936
  outer loop
    vertex 8.357899197515144 62.2728511053467 6.779999938607227
    vertex 5.817898970421448 46.82284938873293 9.319999905489396
    vertex 5.817898970421448 51.932851191177384 9.319999905489396
  endloop
endfacet
facet normal -0.7071067449666 0.0 -0.7071068174064933
  outer loop
    vertex 8.357899197515144 62.2728511053467 6.779999938607227
    vertex 5.817898970421448 51.932851191177384 9.319999905489396
    vertex 5.817898970421448 57.162849302902245 9.319999905489396
  endloop
endfacet
facet normal -0.7071071811808664 0.0 -0.7071063811920025
  outer loop
    vertex 5.817898970421448 51.932851191177384 9.319999905489396
    vertex 5.817898970421448 46.82284938873293 9.319999905489396
    vertex 5.587899231489792 51.932851191177384 9.549999904632573
  endloop
endfacet
facet normal -0.7071071811808664 4.2299372761716585e-18 -0.7071063811920025
  outer loop
    vertex 5.587899231489792 51.932851191177384 9.549999904632573
    vertex 5.817898970421448 46.82284938873293 9.319999905489396
    vertex 5.587899231489792 46.82284938873293 9.549999904632573
  endloop
endfacet
facet normal -0.7071067449666011 2.841268786188493e-16 -0.7071068174064922
  outer loop
    vertex 8.357899197515144 62.2728511053467 6.779999938607227
    vertex 5.817898970421448 36.48284947456362 9.319999905489396
    vertex 5.817898970421448 41.59284824909212 9.319999905489396
  endloop
endfacet
facet normal -0.7071067449665996 -2.7123788246795842e-16 -0.7071068174064937
  outer loop
    vertex 8.357899197515144 62.2728511053467 6.779999938607227
    vertex 5.817898970421448 41.59284824909212 9.319999905489396
    vertex 5.817898970421448 46.82284938873293 9.319999905489396
  endloop
endfacet
facet normal -0.7071071811808664 4.229942289048931e-18 -0.7071063811920025
  outer loop
    vertex 5.817898970421448 41.59284824909212 9.319999905489396
    vertex 5.817898970421448 36.48284947456362 9.319999905489396
    vertex 5.587899231489792 41.59284824909212 9.549999904632573
  endloop
endfacet
facet normal -0.7071071811808664 4.229942289048931e-18 -0.7071063811920025
  outer loop
    vertex 5.587899231489792 41.59284824909212 9.549999904632573
    vertex 5.817898970421448 36.48284947456362 9.319999905489396
    vertex 5.587899231489792 36.48284947456362 9.549999904632573
  endloop
endfacet
facet normal -0.7071067449666022 -5.682537572376941e-16 -0.7071068174064911
  outer loop
    vertex 8.357899197515144 62.2728511053467 6.779999938607227
    vertex 5.817898970421448 26.142849560394314 9.319999905489396
    vertex 5.817898970421448 31.252848334922813 9.319999905489396
  endloop
endfacet
facet normal -0.7071067449666006 0.0 -0.7071068174064925
  outer loop
    vertex 8.357899197515144 62.2728511053467 6.779999938607227
    vertex 5.817898970421448 31.252848334922813 9.319999905489396
    vertex 5.817898970421448 36.48284947456362 9.319999905489396
  endloop
endfacet
facet normal -0.7071071811808664 4.229942289048931e-18 -0.7071063811920025
  outer loop
    vertex 5.817898970421448 31.252848334922813 9.319999905489396
    vertex 5.817898970421448 26.142849560394314 9.319999905489396
    vertex 5.587899231489792 31.252848334922813 9.549999904632573
  endloop
endfacet
facet normal -0.7071071811808664 4.229942289048931e-18 -0.7071063811920025
  outer loop
    vertex 5.587899231489792 31.252848334922813 9.549999904632573
    vertex 5.817898970421448 26.142849560394314 9.319999905489396
    vertex 5.587899231489792 26.142849560394314 9.549999904632573
  endloop
endfacet
facet normal -0.7071067449665964 -5.682534205206187e-16 -0.707106817406497
  outer loop
    vertex 8.357899197515144 62.2728511053467 6.779999938607227
    vertex 5.817898970421448 15.802849646225004 9.319999905489396
    vertex 5.817898970421448 20.912849934711485 9.319999905489396
  endloop
endfacet
facet normal -0.7071067449665992 -1.084952158006208e-15 -0.707106817406494
  outer loop
    vertex 8.357899197515144 62.2728511053467 6.779999938607227
    vertex 5.817898970421448 20.912849934711485 9.319999905489396
    vertex 5.817898970421448 26.142849560394314 9.319999905489396
  endloop
endfacet
facet normal -0.7071071811808664 0.0 -0.7071063811920024
  outer loop
    vertex 5.817898970421448 20.912849934711485 9.319999905489396
    vertex 5.817898970421448 15.802849646225004 9.319999905489396
    vertex 5.587899231489792 20.912849934711485 9.549999904632573
  endloop
endfacet
facet normal -0.7071071811808664 4.2299397826091806e-18 -0.7071063811920025
  outer loop
    vertex 5.587899231489792 20.912849934711485 9.549999904632573
    vertex 5.817898970421448 15.802849646225004 9.319999905489396
    vertex 5.587899231489792 15.802849646225004 9.549999904632573
  endloop
endfacet
facet normal -0.7071067449666002 -1.356190001215708e-16 -0.7071068174064932
  outer loop
    vertex 8.357899197515144 5.462849732055693 6.779999938607227
    vertex 5.817898970421448 10.57284964205268 9.319999905489396
    vertex 5.817898970421448 15.802849646225004 9.319999905489396
  endloop
endfacet
facet normal -0.7071067449666001 -6.8964496111836555e-18 -0.7071068174064933
  outer loop
    vertex 8.357899197515144 5.462849732055693 6.779999938607227
    vertex 5.817898970421448 15.802849646225004 9.319999905489396
    vertex 8.357899197515144 62.2728511053467 6.779999938607227
  endloop
endfacet
facet normal -0.7071071811808666 -1.2689821227656735e-16 -0.7071063811920023
  outer loop
    vertex 5.817898970421448 10.57284964205268 9.319999905489396
    vertex 5.587899231489792 5.462849732055693 9.54999990463258
    vertex 5.587899231489792 10.57284964205268 9.549999904632573
  endloop
endfacet
facet normal -0.7071067811865469 -3.600730684133952e-08 -0.7071067811865472
  outer loop
    vertex 8.357899197515144 5.462849732055693 6.779999938607227
    vertex 5.587899231489792 5.462849732055693 9.54999990463258
    vertex 5.817898970421448 10.57284964205268 9.319999905489396
  endloop
endfacet
facet normal -0.7071071811808664 1.3535799283749307e-16 -0.7071063811920025
  outer loop
    vertex 5.587899231489792 62.2728511053467 9.54999990463258
    vertex 5.817898970421448 57.162849302902245 9.319999905489396
    vertex 5.587899231489792 57.162849302902245 9.549999904632573
  endloop
endfacet
facet normal 0.7071068294956615 7.308999294066636e-08 -0.7071067328774266
  outer loop
    vertex 26.56789853828777 10.57284964205268 9.319999905489396
    vertex 26.797899034198416 5.462849732055693 9.54999990463258
    vertex 24.02789944666256 5.462849732055693 6.779999938607224
  endloop
endfacet
facet normal 0.7071069030172933 1.4206340143754681e-16 -0.7071066593557809
  outer loop
    vertex 26.56789853828777 20.912849934711485 9.319999905489396
    vertex 26.56789853828777 15.802849646225004 9.319999905489396
    vertex 24.02789944666256 5.462849732055693 6.779999938607224
  endloop
endfacet
facet normal 0.7071069030172938 -1.3561904432834055e-16 -0.7071066593557802
  outer loop
    vertex 26.56789853828777 15.802849646225004 9.319999905489396
    vertex 26.56789853828777 10.57284964205268 9.319999905489396
    vertex 24.02789944666256 5.462849732055693 6.779999938607224
  endloop
endfacet
facet normal 0.7071060175616548 0.0 -0.7071075448106157
  outer loop
    vertex 26.797899034198416 15.802849646225004 9.549999904632585
    vertex 26.56789853828777 15.802849646225004 9.319999905489396
    vertex 26.56789853828777 20.912849934711485 9.319999905489396
  endloop
endfacet
facet normal 0.7071060175616558 8.459847371523261e-17 -0.7071075448106147
  outer loop
    vertex 26.797899034198416 15.802849646225004 9.549999904632585
    vertex 26.56789853828777 20.912849934711485 9.319999905489396
    vertex 26.797899034198416 20.912849934711485 9.549999904632585
  endloop
endfacet
facet normal 0.7071069030172944 0.0 -0.7071066593557797
  outer loop
    vertex 26.56789853828777 31.252848334922813 9.319999905489396
    vertex 26.56789853828777 26.142849560394314 9.319999905489396
    vertex 24.02789944666256 5.462849732055693 6.779999938607224
  endloop
endfacet
facet normal 0.7071069030172932 0.0 -0.7071066593557809
  outer loop
    vertex 26.56789853828777 26.142849560394314 9.319999905489396
    vertex 26.56789853828777 20.912849934711485 9.319999905489396
    vertex 24.02789944666256 5.462849732055693 6.779999938607224
  endloop
endfacet
facet normal 0.7071060175616548 -4.2299261921918484e-18 -0.7071075448106157
  outer loop
    vertex 26.797899034198416 26.142849560394314 9.549999904632585
    vertex 26.56789853828777 26.142849560394314 9.319999905489396
    vertex 26.56789853828777 31.252848334922813 9.319999905489396
  endloop
endfacet
facet normal 0.7071060175616557 8.459852384383686e-17 -0.7071075448106147
  outer loop
    vertex 26.797899034198416 26.142849560394314 9.549999904632585
    vertex 26.56789853828777 31.252848334922813 9.319999905489396
    vertex 26.797899034198416 31.252848334922813 9.549999904632585
  endloop
endfacet
facet normal 0.7071069030172978 -5.682539424673677e-16 -0.7071066593557762
  outer loop
    vertex 26.56789853828777 41.59284824909212 9.319999905489396
    vertex 26.56789853828777 36.48284947456362 9.319999905489396
    vertex 24.02789944666256 5.462849732055693 6.779999938607224
  endloop
endfacet
facet normal 0.7071069030172922 -5.424759417629231e-16 -0.707106659355782
  outer loop
    vertex 26.56789853828777 36.48284947456362 9.319999905489396
    vertex 26.56789853828777 31.252848334922813 9.319999905489396
    vertex 24.02789944666256 5.462849732055693 6.779999938607224
  endloop
endfacet
facet normal 0.7071060175616548 -4.2299261921918484e-18 -0.7071075448106157
  outer loop
    vertex 26.797899034198416 36.48284947456362 9.549999904632585
    vertex 26.56789853828777 36.48284947456362 9.319999905489396
    vertex 26.56789853828777 41.59284824909212 9.319999905489396
  endloop
endfacet
facet normal 0.7071060175616557 8.459852384383686e-17 -0.7071075448106147
  outer loop
    vertex 26.797899034198416 36.48284947456362 9.549999904632585
    vertex 26.56789853828777 41.59284824909212 9.319999905489396
    vertex 26.797899034198416 41.59284824909212 9.549999904632585
  endloop
endfacet
facet normal 0.7071069030172967 0.0 -0.7071066593557774
  outer loop
    vertex 26.56789853828777 51.932851191177384 9.319999905489396
    vertex 26.56789853828777 46.82284938873293 9.319999905489396
    vertex 24.02789944666256 5.462849732055693 6.779999938607224
  endloop
endfacet
facet normal 0.7071069030172986 -5.42475941762928e-16 -0.7071066593557754
  outer loop
    vertex 26.56789853828777 46.82284938873293 9.319999905489396
    vertex 26.56789853828777 41.59284824909212 9.319999905489396
    vertex 24.02789944666256 5.462849732055693 6.779999938607224
  endloop
endfacet
facet normal 0.7071060175616547 -4.229921179333652e-18 -0.7071075448106158
  outer loop
    vertex 26.797899034198416 46.82284938873293 9.549999904632585
    vertex 26.56789853828777 46.82284938873293 9.319999905489396
    vertex 26.56789853828777 51.932851191177384 9.319999905489396
  endloop
endfacet
facet normal 0.7071060175616558 8.459842358667294e-17 -0.7071075448106147
  outer loop
    vertex 26.797899034198416 46.82284938873293 9.549999904632585
    vertex 26.56789853828777 51.932851191177384 9.319999905489396
    vertex 26.797899034198416 51.932851191177384 9.549999904632585
  endloop
endfacet
facet normal 0.7071069030172936 0.0 -0.7071066593557804
  outer loop
    vertex 24.02789944666256 62.2728511053467 6.779999938607224
    vertex 26.56789853828777 57.162849302902245 9.319999905489396
    vertex 26.56789853828777 51.932851191177384 9.319999905489396
  endloop
endfacet
facet normal 0.7071069030172935 2.298817286390245e-18 -0.7071066593557805
  outer loop
    vertex 24.02789944666256 62.2728511053467 6.779999938607224
    vertex 26.56789853828777 51.932851191177384 9.319999905489396
    vertex 24.02789944666256 5.462849732055693 6.779999938607224
  endloop
endfacet
facet normal 0.7071060175616548 -5.498897533133749e-17 -0.7071075448106158
  outer loop
    vertex 26.797899034198416 57.162849302902245 9.549999904632585
    vertex 26.56789853828777 57.162849302902245 9.319999905489396
    vertex 26.797899034198416 62.2728511053467 9.54999990463258
  endloop
endfacet
facet normal 0.7071068294956615 -7.308996582990085e-08 -0.7071067328774266
  outer loop
    vertex 26.797899034198416 62.2728511053467 9.54999990463258
    vertex 26.56789853828777 57.162849302902245 9.319999905489396
    vertex 24.02789944666256 62.2728511053467 6.779999938607224
  endloop
endfacet
facet normal 0.7071060175616558 1.4381742662054516e-16 -0.7071075448106147
  outer loop
    vertex 26.797899034198416 5.462849732055693 9.54999990463258
    vertex 26.56789853828777 10.57284964205268 9.319999905489396
    vertex 26.797899034198416 10.57284964205268 9.549999904632585
  endloop
endfacet
facet normal 0.0 -1.0 0.0
  outer loop
    vertex 8.357899197515144 46.82284938873293 12.319999870657933
    vertex 26.56789853828777 46.82284938873293 9.319999905489396
    vertex 24.02789944666256 46.82284938873293 12.31999987065791
  endloop
endfacet
facet normal 0.0 -1.0 0.0
  outer loop
    vertex 8.357899197515144 46.82284938873293 12.319999870657933
    vertex 5.817898970421448 46.82284938873293 9.319999905489396
    vertex 26.56789853828777 46.82284938873293 9.319999905489396
  endloop
endfacet
facet normal 0.0 -1.0 0.0
  outer loop
    vertex 8.357899197515144 46.82284938873293 12.319999870657933
    vertex 5.587899231489792 46.82284938873293 9.549999904632573
    vertex 5.817898970421448 46.82284938873293 9.319999905489396
  endloop
endfacet
facet normal 0.0 -1.0 0.0
  outer loop
    vertex 24.02789944666256 46.82284938873293 12.31999987065791
    vertex 26.56789853828777 46.82284938873293 9.319999905489396
    vertex 26.797899034198416 46.82284938873293 9.549999904632585
  endloop
endfacet
facet normal 0.0 1.0 0.0
  outer loop
    vertex 24.02789944666256 51.932851191177384 12.31999987065791
    vertex 26.797899034198416 51.932851191177384 9.549999904632585
    vertex 26.56789853828777 51.932851191177384 9.319999905489396
  endloop
endfacet
facet normal 0.0 1.0 0.0
  outer loop
    vertex 8.357899197515144 51.932851191177384 12.319999870657933
    vertex 24.02789944666256 51.932851191177384 12.31999987065791
    vertex 5.817898970421448 51.932851191177384 9.319999905489396
  endloop
endfacet
facet normal 0.0 1.0 0.0
  outer loop
    vertex 24.02789944666256 51.932851191177384 12.31999987065791
    vertex 26.56789853828777 51.932851191177384 9.319999905489396
    vertex 5.817898970421448 51.932851191177384 9.319999905489396
  endloop
endfacet
facet normal 0.0 1.0 0.0
  outer loop
    vertex 8.357899197515144 51.932851191177384 12.319999870657933
    vertex 5.817898970421448 51.932851191177384 9.319999905489396
    vertex 5.587899231489792 51.932851191177384 9.549999904632573
  endloop
endfacet
facet normal -0.7071067811865479 2.9862748709486696e-17 0.7071067811865472
  outer loop
    vertex 5.587899231489792 51.932851191177384 9.549999904632573
    vertex 8.357899197515144 46.82284938873293 12.319999870657933
    vertex 8.357899197515144 51.932851191177384 12.319999870657933
  endloop
endfacet
facet normal -0.7071067811865479 -2.986274870948669e-17 0.7071067811865472
  outer loop
    vertex 5.587899231489792 51.932851191177384 9.549999904632573
    vertex 5.587899231489792 46.82284938873293 9.549999904632573
    vertex 8.357899197515144 46.82284938873293 12.319999870657933
  endloop
endfacet
facet normal 0.0 0.0 1.0
  outer loop
    vertex 24.02789944666256 51.932851191177384 12.31999987065791
    vertex 8.357899197515144 51.932851191177384 12.319999870657933
    vertex 24.02789944666256 46.82284938873293 12.31999987065791
  endloop
endfacet
facet normal 0.0 0.0 1.0
  outer loop
    vertex 24.02789944666256 46.82284938873293 12.31999987065791
    vertex 8.357899197515144 51.932851191177384 12.319999870657933
    vertex 8.357899197515144 46.82284938873293 12.319999870657933
  endloop
endfacet
facet normal 0.707106829495663 0.0 0.7071067328774289
  outer loop
    vertex 24.02789944666256 51.932851191177384 12.31999987065791
    vertex 26.797899034198416 46.82284938873293 9.549999904632585
    vertex 26.797899034198416 51.932851191177384 9.549999904632585
  endloop
endfacet
facet normal 0.707106829495663 0.0 0.7071067328774289
  outer loop
    vertex 24.02789944666256 51.932851191177384 12.31999987065791
    vertex 24.02789944666256 46.82284938873293 12.31999987065791
    vertex 26.797899034198416 46.82284938873293 9.549999904632585
  endloop
endfacet
facet normal -8.685562448905878e-17 0.0 -1.0
  outer loop
    vertex 32.38579864417707 67.73570083740223 -7.049916206369744e-15
    vertex 0.0 0.0 0.0
    vertex 0.0 67.73570083740223 0.0
  endloop
endfacet
facet normal -8.685562448905878e-17 0.0 -1.0
  outer loop
    vertex 0.0 0.0 0.0
    vertex 32.38579864417707 67.73570083740223 -7.049916206369744e-15
    vertex 32.38579864417707 0.0 -7.049916206369744e-15
  endloop
endfacet
facet normal 1.5640687063392594e-16 0.48135600866958056 0.8765251809946425
  outer loop
    vertex 8.357899197515144 62.2728511053467 3.0000000000000115
    vertex 32.38579864417707 67.73570083740223 -7.049916206369744e-15
    vertex 0.0 67.73570083740223 0.0
  endloop
endfacet
facet normal 1.5640687063392594e-16 0.48135600866958056 0.8765251809946425
  outer loop
    vertex 32.38579864417707 67.73570083740223 -7.049916206369744e-15
    vertex 8.357899197515144 62.2728511053467 3.0000000000000115
    vertex 24.02789944666256 62.2728511053467 3.0000000000000084
  endloop
endfacet
facet normal 0.3378376686161164 -3.368094814231871e-19 0.9412043931389331
  outer loop
    vertex 32.38579864417707 0.0 -7.049916206369744e-15
    vertex 24.02789944666256 62.2728511053467 3.0000000000000084
    vertex 24.02789944666256 5.462849732055693 3.0000000000000084
  endloop
endfacet
facet normal 0.3378376686161164 -3.368094814231871e-19 0.9412043931389331
  outer loop
    vertex 24.02789944666256 62.2728511053467 3.0000000000000084
    vertex 32.38579864417707 0.0 -7.049916206369744e-15
    vertex 32.38579864417707 67.73570083740223 -7.049916206369744e-15
  endloop
endfacet
facet normal -0.33783766861609354 -2.49328618479604e-18 0.9412043931389411
  outer loop
    vertex 8.357899197515144 5.462849732055693 3.0000000000000115
    vertex 0.0 67.73570083740223 0.0
    vertex 0.0 0.0 0.0
  endloop
endfacet
facet normal -0.33783766861609354 -2.49328618479604e-18 0.9412043931389411
  outer loop
    vertex 0.0 67.73570083740223 0.0
    vertex 8.357899197515144 5.462849732055693 3.0000000000000115
    vertex 8.357899197515144 62.2728511053467 3.0000000000000115
  endloop
endfacet
facet normal 1.630660283669027e-16 -0.48135600866956985 0.8765251809946483
  outer loop
    vertex 32.38579864417707 0.0 -7.049916206369744e-15
    vertex 8.357899197515144 5.462849732055693 3.0000000000000115
    vertex 0.0 0.0 0.0
  endloop
endfacet
facet normal 1.630660283669027e-16 -0.48135600866956985 0.8765251809946483
  outer loop
    vertex 8.357899197515144 5.462849732055693 3.0000000000000115
    vertex 32.38579864417707 0.0 -7.049916206369744e-15
    vertex 24.02789944666256 5.462849732055693 3.0000000000000084
  endloop
endfacet
endsolid Rail
